<svg width="49" height="43" viewBox="0 0 49 43" fill="none" xmlns="http://www.w3.org/2000/svg">
<path d="M12.0518 43C8.35167 43 5.39159 41.6728 3.17152 39.0185C1.05717 36.258 0 32.7012 0 28.3481C0 22.4025 1.58576 17.0407 4.75728 12.263C8.03452 7.379 13.0032 3.29135 19.6634 0L21.4078 2.54814C18.2362 4.45926 15.329 7.16666 12.6861 10.6704C10.1489 14.0679 8.88026 17.5185 8.88026 21.0222C8.88026 21.9778 9.14455 22.7741 9.67314 23.4111C10.2017 23.942 10.9946 24.2074 12.0518 24.2074C14.6947 24.2074 16.9148 25.163 18.712 27.0741C20.6149 28.879 21.5663 31.1086 21.5663 33.763C21.5663 36.4173 20.6149 38.6469 18.712 40.4519C16.9148 42.1506 14.6947 43 12.0518 43ZM39.4854 43C35.7853 43 32.8252 41.6728 30.6052 39.0185C28.4908 36.258 27.4337 32.7012 27.4337 28.3481C27.4337 22.4025 29.0194 17.0407 32.1909 12.263C35.4682 7.379 40.4369 3.29135 47.0971 0L48.8414 2.54814C45.6699 4.45926 42.7627 7.16666 40.1197 10.6704C37.5825 14.0679 36.3139 17.5185 36.3139 21.0222C36.3139 21.9778 36.5782 22.7741 37.1068 23.4111C37.6354 23.942 38.4283 24.2074 39.4854 24.2074C42.1284 24.2074 44.3484 25.163 46.1456 27.0741C48.0485 28.879 49 31.1086 49 33.763C49 36.4173 48.0485 38.6469 46.1456 40.4519C44.3484 42.1506 42.1284 43 39.4854 43Z" fill="#1E1E1E"/>
</svg>
