<svg width="57" height="8" viewBox="0 0 57 8" fill="none" xmlns="http://www.w3.org/2000/svg">
<path d="M9.94404 0L8.13667 2.45773H17.9865C18.4813 2.45773 18.4766 2.64153 18.2339 2.97143C17.9865 3.30604 17.5741 3.89043 17.3243 4.22975C17.1971 4.40177 16.9614 4.71753 17.7272 4.71753H21.7567L22.9467 3.0916C23.6866 2.08777 23.0127 0 20.3664 0H9.94404ZM26.9196 0L23.4439 4.71753H36.1449L39.6159 0H34.4271L32.4407 2.70044H30.1196L32.1131 0H26.9219H26.9196ZM41.3055 0L37.8321 4.71753H43.332L46.8006 0H41.3078H41.3055ZM11.0374 3.06333L7.40854 7.99764H16.2545C19.1764 7.99764 20.8071 6.00884 21.309 5.32077H15.2766C14.5084 5.32077 14.744 5.00736 14.8713 4.83299C15.1234 4.49602 15.5381 3.9187 15.7856 3.58409C16.0306 3.2542 16.0377 3.06568 15.5381 3.06568H11.0374V3.06333ZM0 5.32312V5.89337H8.00707L8.4218 5.32312H0ZM23.0032 5.32312L21.0333 8H26.2244L28.1944 5.32312H23.0032ZM30.5084 5.32312L28.5384 8H33.7296L35.6996 5.32312H30.5084ZM37.3844 5.32312C37.3844 5.32312 37.0097 5.84153 36.8236 6.09131C36.1732 6.97261 36.7458 8 38.8736 8H47.2106L49.1758 5.32312H37.3844ZM50.1278 5.32312L49.7108 5.89337H56.5538V5.32312H50.1278ZM0 6.37879V6.94433H7.22946L7.6489 6.37879H0ZM49.3502 6.37879L48.9379 6.94433H56.5538V6.37879H49.3502ZM0 7.43211V7.99764H6.45655L6.87128 7.43211H0ZM48.5773 7.43211L48.1602 7.99764H56.5538V7.43211H48.5773Z" fill="black"/>
</svg>
